<?xml version="1.0" encoding="UTF-8"?>
<svg id="Capa_1" data-name="Capa 1" xmlns="http://www.w3.org/2000/svg" viewBox="0 0 595.28 841.89">
  <defs>
    <style>
      .cls-1 {
        fill: #3f3f3f;
      }
    </style>
  </defs>
  <path class="cls-1" d="M152.36,181.34c6.05,3.18,11,5.09,14.07,11.69.46.99,2.7,7.65,2.7,8.08v30.55h255.18v-30.55c0-.43,2.24-7.09,2.7-8.08,3.07-6.59,8.01-8.51,14.07-11.69h34.74c4.78,2.3,15.57,10.49,15.57,16.17v32.35l1.8,1.8h27.55c1.6,0,8.25,3.15,10.2,4.18,10.97,5.74,16.12,14.56,20.35,25.78v367.8c-4.75,16.24-14.9,26.4-31.15,31.15H73.29c-16.24-4.75-26.4-14.9-31.15-31.15v-367.8c4.03-10.49,8.27-18.32,18.07-24.46,1.7-1.07,10.13-5.49,11.28-5.49h28.75l1.8-1.8v-32.35c0-6.38,10.59-13.42,15.57-16.17h34.74ZM121.81,199.31l-1.8,1.8v77.87l1.8,1.8h27.55l1.8-1.8v-77.87l-1.8-1.8h-27.55ZM444.08,199.31l-1.8,1.8v77.87l1.8,1.8h27.55l1.8-1.8v-77.87l-1.8-1.8h-27.55ZM102.04,248.43h-24.56c-4.47,0-17.37,10.49-17.37,14.98v56.91h470.23c.3,0,.71.97,1.2.94l1.8-1.54v-56.31c0-4.55-12.31-14.98-17.37-14.98h-24.56v32.95c0,5.85-8.41,14.03-14.05,15.9-7.51,2.48-32.45,2.54-39.84-.34-5.97-2.32-13.19-11.66-13.19-17.95v-30.55h-255.18v30.55c0,6.05-7.37,15.79-13.2,17.95-7.66,2.84-32.14,2.89-39.84.34-5.64-1.86-14.05-10.05-14.05-15.9v-32.95ZM533.33,338.28H60.11v289.33c0,4.41,8.47,13.57,13.4,14.16l441.3.87c5.91,1.63,18.52-9.15,18.52-13.83v-290.52Z"/>
  <path class="cls-1" d="M96.9,549.39c7.23-1.62,46.42-1.26,54.88-.28,5.54.64,8.35,3.48,8.99,8.99,1.37,11.82,1.13,39.52.03,51.6-.55,6.05-2.51,9.4-9.02,10.15-10.67,1.24-43.57,1.43-54,.04-4.03-.54-7.24-3.69-7.79-7.79-2.25-16.92,1.78-38.85.09-56.34.53-2.83,4.06-5.75,6.81-6.37ZM142.77,567.11h-34.74v31.75c0,.3-.97.71-.94,1.2l1.54,1.8h32.35c.36,0,.92,1.52,1.8,1.2v-35.94Z"/>
  <path class="cls-1" d="M439.54,549.39c17.27,1.01,38.04-2.24,54.88-.28,5.54.64,8.35,3.48,8.99,8.99,1.24,10.7,1.43,43.55.04,54-.54,4.03-3.69,7.24-7.79,7.79-10.45,1.39-43.32,1.2-54-.04-5.54-.64-8.35-3.48-8.99-8.99-1.3-11.21-1.3-41.56,0-52.77.51-4.43,2.48-7.39,6.87-8.7ZM485.41,567.11h-34.74v35.94c.88.32,1.43-1.2,1.8-1.2h31.15c.35,0,.86,1.46,1.79,1.2v-35.94Z"/>
  <path class="cls-1" d="M98.13,361.33c9.83-1.76,39.36-1.22,50.07-.33,6.82.57,11.68,1.26,12.56,9,1.39,12.14,1.16,40.4.03,52.8-.53,5.79-1.58,8.22-7.82,8.95-12.25,1.44-41.45,1.18-53.99.03-5.79-.53-8.22-1.58-8.95-7.82-1.21-10.31-1.44-45.19.09-55.06.71-4.58,3.64-6.79,8-7.57ZM142.77,379.01h-34.14c-2.72,1.67-.6,2.58-.6,3v32.95h34.74v-35.94Z"/>
  <path class="cls-1" d="M438.34,455.94c18.03,1.09,39.69-2.32,57.28-.27,5.3.62,7.18,2.53,7.79,7.79,1.4,12.07,1.16,40.45.03,52.79-.55,6.05-2.51,9.4-9.02,10.15-11.8,1.37-39.54,1.13-51.6.03-6.05-.55-9.4-2.51-10.15-9.02-1.29-11.11-1.31-41.68,0-52.77.46-3.85,2.17-6.85,5.67-8.71ZM485.41,508.4v-32.95c0-.3.97-.71.94-1.2l-1.54-1.8h-34.14v35.94h34.74Z"/>
  <path class="cls-1" d="M435.39,430.21c-1.21-1.11-2.53-5.61-2.73-7.45-1.32-11.87-1.19-39.58-.05-51.62.61-6.42,3.71-9.41,10.24-10.14,8.83-.99,45.8-1.26,53.42.55,5.53,1.31,6.69,4.3,7.17,9.61,1.1,12.38,1.39,40.72-.04,52.79-.73,6.24-3.17,7.29-8.95,7.82-13.2,1.21-39.55,1.39-52.8.54-1.52-.1-5.23-1.16-6.25-2.11ZM485.41,379.01h-34.74v35.94h34.74v-35.94Z"/>
  <path class="cls-1" d="M210.72,549.39c17.32,1.26,39.38-2.55,56.12-.32,4.03.54,7.24,3.69,7.79,7.79,1.51,11.34,1.08,42.17,0,54.03-.53,5.79-1.58,8.22-7.82,8.95-12.02,1.41-40.48,1.15-52.79.04-7.95-.72-9.46-3.7-10.17-11.39-1.09-11.75-1.32-38.88.02-50.39.51-4.43,2.48-7.39,6.87-8.7ZM257.78,567.11h-35.94v34.74l33.57.83,2.37-1.43v-34.14Z"/>
  <path class="cls-1" d="M95.7,455.93l57.32-.31c5.58.63,7.33,5.26,7.78,10.19,1.11,12.02,1.33,39.84-.03,51.6-.64,5.54-3.48,8.35-8.99,8.99-11.82,1.37-39.52,1.13-51.6.03-6.05-.55-9.4-2.51-10.15-9.02-1.24-10.69-1.43-43.55-.04-54,.48-3.65,2.68-5.62,5.7-7.48ZM142.77,472.46h-34.74v35.94h34.74v-35.94Z"/>
  <path class="cls-1" d="M209.51,455.94c18.03,1.09,39.7-2.31,57.29-.28,4.47.52,7.21,1.96,7.82,6.56,1.51,11.35,1.16,43.43.01,55.24-.64,6.57-4.07,8.4-10.2,8.97-12.04,1.11-39.8,1.33-51.6-.03-7.21-.83-8.41-4.89-9.01-11.36-1.08-11.72-1.33-38.95.02-50.39.46-3.85,2.17-6.85,5.67-8.71ZM257.78,508.4v-34.14l-1.8-1.8h-34.14v35.94h35.94Z"/>
  <path class="cls-1" d="M206.57,430.22c-1.66-1.56-2.55-6.24-2.77-8.61-1.08-12-1.28-38.62.03-50.41.82-7.37,4.33-9.45,11.41-10.16,11.68-1.17,36.24-1.14,47.97-.04,6.53.61,10.71,1.73,11.41,8.96,1.16,12.07,1.47,43.56-.01,55.24-.63,4.93-4.52,7.08-9.23,7.3-14,.64-38.7.46-52.58-.72-1.98-.17-4.74-.16-6.23-1.56ZM257.78,379.01h-35.94v35.94h34.14l1.8-1.8v-34.14Z"/>
  <path class="cls-1" d="M386.84,523.64c-1.33,1.33-5.43,2.54-7.42,2.76-11.71,1.3-38.49,1.12-50.4.02-6.13-.57-9.56-2.4-10.2-8.97-1.14-11.75-1.5-43.98.01-55.24.72-5.38,4.16-6.15,8.99-6.59,12.01-1.09,42.5-1.5,54.03,0,6.17.8,7.27,6.08,7.77,11.4,1.09,11.6,1.26,37.78-.01,49.19-.22,1.99-1.44,6.1-2.76,7.42ZM371.6,508.4v-34.14l-1.8-1.8h-32.35l-1.8,1.8v34.14h35.94Z"/>
  <path class="cls-1" d="M386.87,363.75c1.21,1.13,2.53,5.61,2.73,7.45,1.3,11.73,1.12,38.48.02,50.4-.59,6.38-3.48,10.58-10.42,10.9-17.05.77-36.38-2.21-53.79-.71-5.22-.26-6.19-4.57-6.59-8.99-1.09-12.01-1.5-42.5,0-54.03.8-6.17,6.08-7.27,11.4-7.77,11.73-1.1,36.29-1.13,47.97.04,2.03.2,7.35,1.49,8.68,2.71ZM371.6,379.01h-35.94v35.94h35.94v-35.94Z"/>
  <path class="cls-1" d="M329.25,604.66c-4.45-4.17-16.84-13.56-16.14-19.9.64-5.81,7.46-9.43,12.65-7.18,4.03,1.74,15.19,16.55,17.66,15.88,2.2-2.32,4.38-5.67,6.58-7.85,6.82-6.77,22.43-23.95,29.09-28.45,10.37-7,19.29,1.85,13.41,11.09l-44.92,44.92c-8.67,5.83-13.41-3.89-18.34-8.5Z"/>
</svg>