<?xml version="1.0" encoding="UTF-8"?>
<svg id="Capa_1" data-name="Capa 1" xmlns="http://www.w3.org/2000/svg" viewBox="0 0 595.28 841.89">
  <defs>
    <style>
      .cls-1 {
        fill: #3f3f3f;
      }
    </style>
  </defs>
  <path class="cls-1" d="M112.29,446.24c-24.28-2.88-37.04-29.46-22.15-49.7l203.19-196.83c8.51-5.16,19.53-5.06,28.58-1.41,25.34,18.83,45.6,43.93,69.44,64.69,1.74-3.52,5.01-6.48,8.58-8.18,7.54-3.6,43.15-3.75,52.39-2.49,9.91,1.35,18.11,9.9,19.9,19.63l.22,69.25c15.23,19.41,39.1,34.73,54.26,53.53,9.16,11.35,10.96,25.83,2.31,38.26-4.26,6.12-15.2,13.25-22.68,13.25h-34.13v165.88c0,12.72-16.74,28.15-28.5,31.38s-58.89,2.85-72.76,1.61c-8.03-.72-9.46-3.81-10.17-11.39-3.38-36.37,3.7-78.79.03-115.01-1.81-17.86-17.79-32.4-35.33-34.14-27.4-2.72-58.45-1.11-67.13,29.86-3.64,38.48,3.04,81.32-.48,119.29-.7,7.54-2.12,10.67-10.17,11.39-14.08,1.26-61.72,1.66-73.71-1.85-10.62-3.11-27.54-18.45-27.54-29.94v-167.07c-10.83-.93-23.56,1.25-34.13,0ZM377.58,628.28h59.28c6.17,0,18.33-11.76,18.46-18.67l.64-174.22c.72-1.42,1.74-3.26,2.97-4.22,10.96-8.6,64.63,11.94,57.98-20.68l-60.57-61.58c-.92-1.57-.8-3.3-.96-5.03-1.96-21.32,2.77-47.71.12-68.39-.52-4.03-2.6-6.08-6.59-6.59-5.96-.76-34.13-.87-39.33.32-9.86,2.26-1.21,22.96-17.88,17.41l-76.7-73.05c-5.79-2.34-11.97-.79-16.49,3.25-51.81,52.37-106.36,102.19-158.69,153.9-5.72,5.65-37.67,36.23-38.64,40.4-6.41,27.8,40.93,15.64,55.4,18.35,2.8.52,4.46,2.79,5.51,5.27l1.19,176.06c1.68,6.01,6.01,11.99,11.59,14.76.92.45,6.52,2.69,6.89,2.69h59.28v-114.38c0-9.5,12.93-27.58,20.35-33.55,22.01-17.73,73.14-18.02,95.2-.56,7.69,6.09,20.99,24.3,20.99,34.1v114.38Z"/>
</svg>