<?xml version="1.0" encoding="UTF-8"?>
<svg id="Capa_1" data-name="Capa 1" xmlns="http://www.w3.org/2000/svg" viewBox="0 0 595.28 841.89">
  <defs>
    <style>
      .cls-1 {
        fill: #3f3f3f;
      }
    </style>
  </defs>
  <path class="cls-1" d="M275.02,165.14c218.38-15.26,359.06,225.99,231.05,405.15-117.53,164.5-371.29,133.97-447.05-52.94C-5.09,359.14,104.35,177.06,275.02,165.14ZM290.35,214.41c-163.55,6.08-257.65,191.7-161.16,326.95,85.16,119.37,265.02,113.47,342.92-10.51,85.77-136.52-11.39-311.92-170.05-316.75l-11.71.31Z"/>
  <path class="cls-1" d="M287.03,365.47c20.88-2.84,42,7.34,44.04,29.85-3.64,50.01,4.99,107.25-.12,156.42-3.92,37.81-65.73,39.63-73.23,3.42l.1-165.24c2.8-13.18,16.32-22.69,29.2-24.45Z"/>
  <path class="cls-1" d="M269.06,322.1c-38.22-36.77,18.77-97.14,52.73-55.47,31.06,38.1-19.48,87.46-52.73,55.47Z"/>
</svg>