<?xml version="1.0" encoding="UTF-8"?>
<svg id="Capa_1" data-name="Capa 1" xmlns="http://www.w3.org/2000/svg" viewBox="0 0 595.28 841.89">
  <defs>
    <style>
      .cls-1 {
        fill: #3f3f3f;
      }
    </style>
  </defs>
  <path class="cls-1" d="M480.56,687H114.71c-17.26-4.53-29.58-16.67-31.95-34.72l-.06-492.61c1.43-19.81,15.26-34.13,34.77-36.86l238.06-.06c11.25.78,18.01,3.92,26.43,11.04,41.61,35.22,78.77,83.7,120.1,120.13,6.79,8.21,9.75,15.06,10.5,25.86l-.06,372.5c-2.37,18.05-14.68,30.19-31.95,34.72ZM347.22,155.86H119.67c-2.75,0-4.23,4.69-3.9,7.12l1.06,489.13,6.1,1.88,354.67-1.07c.57-.35,1.85-2.4,1.85-2.84v-361.99h-99.73c-12.61,0-32.51-19.87-32.51-32.51v-99.73ZM455.22,255.04l-74.93-74.93v71.08c0,1.15,2.71,3.86,3.86,3.86h71.08Z"/>
  <path class="cls-1" d="M303.52,590.76c-9.49-9.52-3.64-25.6,9.06-28.21l111.13.02c18.54,3.8,18.59,29.03,0,32.87l-110.12.12c-2.86-.35-8.07-2.79-10.07-4.81Z"/>
  <path class="cls-1" d="M303.52,370.37c-9.69-9.72-3.31-26.66,10.07-28.3l109.02.12c19.93,3.47,19.28,30.79-1,32.96-33.72,3.61-73.63-2.72-108.02.02-2.86-.35-8.07-2.79-10.07-4.81Z"/>
  <path class="cls-1" d="M303.52,480.57c-9.69-9.72-3.31-26.66,10.07-28.3l109.02.12c19.93,3.47,19.28,30.79-1,32.96-33.72,3.61-73.63-2.72-108.02.02-2.86-.35-8.07-2.79-10.07-4.81Z"/>
  <path class="cls-1" d="M244.38,427.34c15.85-.12,21.37,16.54,11.41,28.83-7.42,9.15-42.1,44.73-50.79,50.59-5.4,3.64-11.21,4.47-17.24,1.95-4.02-1.68-23.28-20.44-26.14-24.54-12.18-17.41,6.27-35.82,23.53-23.53,2.25,1.6,8.59,9.51,10.41,9.19l42.55-41.26c1.99-.3,4.34-1.22,6.27-1.24Z"/>
  <path class="cls-1" d="M244.38,537.54c15.85-.12,21.37,16.54,11.41,28.83-7.42,9.15-42.1,44.73-50.79,50.59-5.4,3.64-11.21,4.47-17.24,1.95-4.02-1.68-23.28-20.44-26.14-24.54-12.18-17.41,6.27-35.82,23.53-23.53,2.25,1.6,8.59,9.51,10.41,9.19l42.55-41.26c1.99-.3,4.34-1.22,6.27-1.24Z"/>
  <path class="cls-1" d="M240.03,309.29c15.32-3.16,26.33,11.63,18.43,25.04l-54.55,54.55c-5.88,3.7-12.76,3.83-18.63,0-2.72-1.78-23.72-22.87-25.23-25.46-8.98-15.32,8.3-32.48,22.92-22.92,3.11,2.03,9.15,11.18,12.5,10.3s31.59-32.82,38.21-37.93c1.8-1.39,4.09-3.11,6.33-3.57Z"/>
</svg>