<?xml version="1.0" encoding="UTF-8"?>
<svg id="Capa_1" data-name="Capa 1" xmlns="http://www.w3.org/2000/svg" viewBox="0 0 595.28 841.89">
  <defs>
    <style>
      .cls-1 {
        fill: #3f3f3f;
      }
    </style>
  </defs>
  <path class="cls-1" d="M254.15,449.26h251.04c20.84,0,38.97-32.96,37.84-53.48-1.1-20.05-20.42-49.31-41.79-49.31h-247.09c29.64-39.05,135.74-105.66,63.41-156.32-27.58-19.31-50-9.03-73.38,9.95-64.91,52.69-122.95,132.8-187.91,187.66-5.39,6.04-5.48,14.01,0,20.19l191.85,191.63c36.83,34.81,96.9,11.14,93.09-41.53-2.4-33.16-60.39-69.82-81.15-96.92-3.05-3.98-7.63-4.99-5.9-11.89Z"/>
</svg>