<?xml version="1.0" encoding="UTF-8"?>
<svg id="Capa_1" data-name="Capa 1" xmlns="http://www.w3.org/2000/svg" viewBox="0 0 595.28 841.89">
  <path d="M342.96,164.37c7.24,6.7,11.1,23.38,10.27,33.14,4.55,4.76,112.08-2.9,131.62.19,21.57,3.41,32.14,30.25,25.19,49.65l-21.48,3.33-5.09,7.32-28.63,349.76c-6.61,22.96-26.72,46.99-51.2,51.15-26.35,4.48-171.44,4.65-196.38-.63-24.97-5.29-42.91-29.82-48.72-53.62l-29.09-349.29-4.62-4.69-21.48-3.32c-6.96-19.39,3.61-46.23,25.19-49.65,19.54-3.09,127.04,4.54,131.62-.19-10.39-43.85,63.46-51.05,82.8-33.14ZM278.78,197.52h55.83l-3.84-20.98c-5.68-5.7-42.32-5.85-48.15,0l-3.84,20.98ZM120.6,234.74h370.63l3.4-6.38c-2.25-12.41-10.64-14.15-22.02-15.31-103.27-10.6-223.78,8.02-328.9-.16-13.49-.19-25.56,6.78-23.11,21.86ZM148.51,250.25l28.74,357.4c6.68,17.59,20.66,31.28,39.31,35.12,25.89,5.33,147.07,4.93,175.14,1.1,28.35-3.86,46.14-26.2,48.32-54.03l27.34-332.59-4.06-7H148.51Z"/>
  <path d="M297.39,289.02c.3-1.06,6.71-7.23,8.18-7.49,3.18-.97,10.43,6.7,10.43,7.49v307.05c0,.55-6.53,7.2-8.18,7.49-3.18.97-10.43-6.7-10.43-7.49v-307.05Z"/>
  <path d="M195.5,284.87l12.08-2.33c3.21,2.52,5.46,17.07,6.03,22.02,9.47,81.72,18.59,181.8,21.71,263.63.28,7.3,2.5,33.36-4.65,35.61-12.64,2.76-12.85-20.02-13.9-29.47-9.44-85.42-16.67-180.81-21.7-266.71-.44-7.49-.57-15.33.42-22.74Z"/>
  <path d="M375.38,600.22c-.99-7.42-.85-15.26-.42-22.75,4.97-85.87,12.48-181.23,21.7-266.71,1.05-9.74,1.46-32.24,13.65-29.33,8.69,2.07,3.84,30.81,4.9,38.56-13.52,86.79-10.09,180.18-21.97,266.47-.55,3.99-2.91,14.1-5.81,16.08l-12.05-2.34Z"/>
</svg>