<?xml version="1.0" encoding="UTF-8"?>
<svg id="Capa_1" data-name="Capa 1" xmlns="http://www.w3.org/2000/svg" viewBox="0 0 595.28 841.89">
  <defs>
    <style>
      .cls-1 {
        stroke: #1d1d1b;
        stroke-miterlimit: 10;
        stroke-width: 2px;
      }
    </style>
  </defs>
  <path class="cls-1" d="M478.82,594.26c-129.46,139.29-365.16,80.17-413.5-103.16C15.11,300.72,196.72,132.17,382.76,197.66c165.1,58.12,215.46,268.13,96.06,396.6ZM293.03,198.97c-180.02,7.09-283.52,210.04-179.61,359.02,94.27,135.15,296.23,128.91,382.23-11.4,92.87-151.5-16.09-343.86-190.88-347.96l-11.75.34Z"/>
  <path class="cls-1" d="M308.24,419.68h93.5c5.38,0,9.32,13.47-.06,14.94-32.47-2.13-68.99,3.04-100.98.11-5.15-.47-7.46-1.86-7.5-7.5l.11-135.98c1.41-9.01,14.94-6.61,14.94-1.06v129.5Z"/>
  <path class="cls-1" d="M297.95,587.89c5.57-1.26,9.61.44,10.3,6.27,1.78,15.08-1.34,33.53-.04,48.99-3.32,8.14-13.94,7.21-15-1.95-1.03-8.95-1.26-39.44.08-47.96.44-2.77,1.84-4.72,4.65-5.35Z"/>
  <path class="cls-1" d="M465.95,419.89l48.73-.16c8.01,1.26,10.07,12.04,2.03,14.92h-50.95c-7.21-2.63-6.81-12.27.19-14.76Z"/>
  <path class="cls-1" d="M84.94,419.88l49.73-.15c8.07,1.25,8.38,12.37,1.03,14.91h-50.95c-6.63-2.63-6.02-11.86.19-14.77Z"/>
  <path class="cls-1" d="M297.94,206.89c4.87-1.46,9.69,1.32,10.35,6.24,1.96,14.72-1.55,33.81-.08,49.03-3.32,8.14-13.94,7.21-15-1.95-1.71-14.82,1.3-32.81.04-48,.33-1.72,3.04-4.82,4.68-5.31Z"/>
  <path class="cls-1" d="M429.5,298.43c-2.02-2.18-2.1-7.08-.69-9.67.96-1.77,15.21-15.93,17.41-17.6,8.07-6.09,16.23,1.56,11.89,9.89-.78,1.5-14.98,15.85-16.83,17.16-3.41,2.43-8.67,3.56-11.78.21Z"/>
  <path class="cls-1" d="M171.98,298.42c-3.79,4.1-9.14,1.58-12.76-1.22-2.64-2.05-15.54-15.13-16.43-17.57-2.36-6.47,3.47-12.38,9.49-10.54,1.68.51,19.81,18.24,20.84,20.24,1.36,2.61.75,7.06-1.13,9.1Z"/>
  <path class="cls-1" d="M162.94,554.88c8.14-2.47,13.64,4.63,9.14,12.15-1.12,1.87-15.83,16.67-17.47,17.52-7.4,3.82-14.85-2.17-11.62-9.62.72-1.66,18.6-19.64,19.95-20.05Z"/>
  <path class="cls-1" d="M432.95,554.89c2.55-.57,4.58-.57,6.84.73,1.1.63,17.04,16.73,17.9,18.1,4.98,7.92-2.79,14.98-10.83,10.83-1.56-.8-15.85-15.06-17.08-16.91-3.01-4.53-2.96-11.36,3.16-12.74Z"/>
</svg>