<?xml version="1.0" encoding="UTF-8"?>
<svg id="Capa_1" data-name="Capa 1" xmlns="http://www.w3.org/2000/svg" viewBox="0 0 595.28 841.89">
  <path d="M8.54,206.43c2.46-4.97,3.6-4.91,8.78-5.33,33.7-2.77,109.49-3.79,142.13.05,3.75.44,6.63.32,8.89,4v125h73.46c4.96,0,22.14,8.03,26.87,11.79,27.55,21.94,15.24,71.68,18.61,102.53,1.92,5.86,10.3,5.2,15.12,2.97l86.38-142.87-12.08-28.13-25.34-1.73-4.67-5.53,2.06-8.63h37.37l25.79,48.96c-1.03-15.5,28.89-32.75,36.08-18.03,2.64,5.41,2.26,45.45-1.01,50.04-4.85,4.26-12.94.49-18.33.16-3.15-.19-4.31-2.81-2.54,2.58,6.27,19.04,22.71,40.6,28.38,60.64,46.25-16.31,95.48,1.39,120.57,43.01l13.39,36.87v25.77c-7.71,39.8-38.07,77.3-79.77,83.9-111.93,17.69-162.18-121.51-70.53-183.05l-13.38-27.13-70.83,119.88c-4.12,2.54-86.8,2.59-96.84,1.4-16.21-1.93-9.93-21.03-12.61-33.78-20.28-96.29-137.61-118.69-203.77-46.29-4.05,4.43-21.04,34.03-25.84,10.55-2.72-13.29,37.56-46.02,47.78-54.31-17.3-2.22-39.47,5.24-54.12-5.18v-170.11ZM26.58,239.93h122.43c6-5.15,6-18.05,0-23.2H26.58v23.2ZM152.87,330.14v-70.88l-3.87-3.87H26.58v74.74h126.29ZM244.37,348.18H26.58v15.46h114.69c4.32,0,22.14,4.33,27.6,5.9,55.55,16,88.18,64.1,97.23,119.27,2.88,2.07,64.28,2.31,70.99,1.05,5.8-1.09,8.13-5.08,11.23-9.39,24.15-33.66,41.8-77.46,66.37-111.61,3.74-12.27-12.92-30.48-14.43-43.88l-5.71,3.35-79.19,133.93c-8.55,8.49-31.82,4.39-40.14-3.2-19.89-18.13,14.14-102.91-30.85-110.9ZM483.19,466.32c25.87-.27,41.5,15.17,34.45,41.73-7.94,29.89-59.37,26.25-58.28-11.69.3-10.44,8.57-18.25,7.53-25.14-.37-2.45-19.06-43.06-21.47-43.09-81.37,55.82-18.53,179.92,75.21,144.76,18.6-6.97,37.82-26.88,44.75-45.45,24.76-66.36-37.29-129.31-103.21-107.05l21.02,45.94Z"/>
  <path d="M110.97,400.35c153.19-23.83,158.11,210.17,7.14,195.24-109.72-10.85-113.02-178.77-7.14-195.24ZM123.95,415.92c-121.02,11.76-80.11,199,36.6,157.73,86.22-30.49,57.75-166.9-36.6-157.73Z"/>
  <path d="M109.93,519.99c-29.38-28.02,15.2-75.52,44.35-43.06,25.17,28.03-15.81,70.29-44.35,43.06Z"/>
</svg>