<?xml version="1.0" encoding="UTF-8"?>
<svg id="Capa_1" data-name="Capa 1" xmlns="http://www.w3.org/2000/svg" viewBox="0 0 595.28 841.89">
  <defs>
    <style>
      .cls-1 {
        fill: #3f3f3f;
      }
    </style>
  </defs>
  <path class="cls-1" d="M274.44,122.41c165.87-11,278.38,165.53,198.54,312.01l-183.69,285.4-2.73-1.93L106.04,437.52c-77.09-134.33,13.87-304.86,168.41-315.11ZM289.87,655.47l152.7-238.6c56.35-101.05-2.74-231.25-115.46-255.4-149.39-32.02-265.21,124.55-190.66,258.5l151,234.77,2.41.73Z"/>
  <path class="cls-1" d="M277.95,227.69c85.27-8.27,145.03,83.35,101.78,157.93-38.63,66.62-134.48,69.95-177.84,6.34-44.83-65.78-2.83-156.61,76.05-164.27ZM280.27,262.77c-88.86,10.12-76.99,146.44,13.7,140.03,92.85-6.56,81.19-150.84-13.7-140.03Z"/>
</svg>