<?xml version="1.0" encoding="UTF-8"?>
<svg id="Capa_1" data-name="Capa 1" xmlns="http://www.w3.org/2000/svg" viewBox="0 0 1032.5 924.35">
  <path d="M727.23,729.49h-317c40.43,59.43-9.69,138.91-81.22,126.72-69.07-11.77-91.62-101.09-36.8-144.22-51.51-41.53-35.36-125.58,29.02-142.51L209.13,110.59l-96.31-.19c-20.09-4.64-19.17-31.03,1-34.82l122.48.35.75,1.25,23.82,94.18,599.91.09c21.51,2.5,38.97,21.32,36.45,43.52l-85.04,357.96c-6.05,17.84-20.69,28.19-39.4,29.6-34.54,2.59-73.24-.94-107.99-1.09-109.34-.47-218.7.44-328.04.06-55.74,9.98-52.47,87.78,4.01,92.97l461.02-.02c87.65,7.69,102.38,132.26,17.99,159.07-74.33,23.62-135.73-59.76-92.53-124.03ZM268.23,206.49l88.96,359.54c90.51,1.18,181.06.03,271.59.41,3.11.01,5.83,1.13,8.9,1.1,42.85-3.02,90.86,3.85,133.1,0,3.19-.29,5.53-.69,7.33-3.67l83.94-351.17c1.38-1.73-2.53-6.21-3.31-6.21H268.23ZM375.88,809.14c41.67-40.48-16.25-107.08-62.66-69.16-49.2,40.21,16.35,114.15,62.66,69.16ZM788.01,729.77c-58.59,7.07-49.38,98.66,11.6,92.6,60.09-5.97,52.3-100.31-11.6-92.6Z"/>
</svg>