<?xml version="1.0" encoding="UTF-8"?>
<svg id="Capa_1" data-name="Capa 1" xmlns="http://www.w3.org/2000/svg" viewBox="0 0 595.28 841.89">
  <defs>
    <style>
      .cls-1 {
        fill: #3f3f3f;
      }
    </style>
  </defs>
  <path class="cls-1" d="M331.58,178.42c6.71.61,16.91,3.11,23.77,4.67,104.78,23.91,185.07,113.01,197.79,219.88h-61.88c-12.41-82.53-80.22-150.06-162.57-162.78l-.11-61.77c.98.06,2.01-.09,2.99,0Z"/>
  <path class="cls-1" d="M266.71,178.42l-.11,61.77c-82.52,12.79-149.89,80.17-162.67,162.67l-61.77.11c.06-.98-.09-2.01,0-2.99,9.2-101.39,99.69-197.11,198.59-217.07l22.96-4.48h2.99Z"/>
  <path class="cls-1" d="M42.17,464.85l61.77.11c12.77,82.41,80.19,150.09,162.78,162.57v61.88c-106.78-12.72-195.99-93.08-219.88-197.79l-4.67-23.77v-2.99Z"/>
  <path class="cls-1" d="M284.48,318.44c94.88-8.39,161.58,89.34,114.14,173.02-49.02,86.48-179.28,74.14-211.03-19.85-23.27-68.87,23.52-146.69,96.89-153.18Z"/>
  <path class="cls-1" d="M553.14,464.85c-13.23,115.87-108.6,211.38-224.55,224.55v-61.88c82.44-12.4,150.27-80.25,162.67-162.67h61.88Z"/>
</svg>