<?xml version="1.0" encoding="UTF-8"?>
<svg id="Capa_1" data-name="Capa 1" xmlns="http://www.w3.org/2000/svg" viewBox="0 0 595.28 841.89">
  <defs>
    <style>
      .cls-1 {
        fill: #3f3f3f;
      }
    </style>
  </defs>
  <path class="cls-1" d="M308.49,149.28c59.32,5.48,106.19,60.73,102.22,120.09-6.75,100.98-133.59,143.15-199.58,65.78-58.78-68.91-13.67-177.63,75.6-185.87,5.73-.53,16.02-.53,21.75,0Z"/>
  <path class="cls-1" d="M224.52,410.45c43.03-2.63,99.03-2.41,142.21-.37,50.92,2.4,94.67,29.79,106.76,81.35,12.31,52.49,11.36,113.65,22.06,167.06.87,22.36-10.96,39.17-31.72,46.53l-327.77.79c-19.3-3.07-34.91-20.22-36.37-39.73,7.12-53.21,10.81-108.89,19.71-161.77,9.54-56.65,47.72-90.34,105.12-93.85Z"/>
</svg>