<?xml version="1.0" encoding="UTF-8"?>
<svg id="Capa_1" data-name="Capa 1" xmlns="http://www.w3.org/2000/svg" viewBox="0 0 595.28 841.89">
  <defs>
    <style>
      .cls-1 {
        fill: #3f3f3f;
      }
    </style>
  </defs>
  <path class="cls-1" d="M303.6,176.47c4.93,1.72,9.37,2.6,14.11,5.12,15.39,8.2,25.03,27.09,44.43,25.33,22.48-2.05,40.3-14.08,61.26,4.05,14.86,12.85,17.5,43.91,32.01,50.82s33.3,6.08,46.24,18.83c18.03,17.75,10.27,37.39,9.9,59.03-.31,18.21,18.89,27.09,29.06,40.06,5.01,6.39,7.34,12.88,9.45,20.63-.34,3.77.47,8.18,0,11.83-2.5,19.23-26.36,35.56-23.22,55.28,3.59,22.53,19.37,37.21,4.9,62-12.45,21.32-42.49,20.42-48.26,44.42-4.66,19.36-2.14,40.06-21.23,52.73-19.64,13.04-50.1,2.19-63.02,14.87-15.14,14.86-19.84,37.01-45.96,39.82-24.82,2.68-42.3-22.13-64.45-15.16-22.48,7.07-35.6,24.56-62.14,9.86-16.43-9.1-26.73-38.69-42.95-40.86-19.97-2.67-39.67,2.86-56.1-12.91-18.26-17.54-8.7-50.2-23.84-62.94-21.67-18.23-50.85-19.13-45.59-58.76,2.38-17.91,16.62-30.92,7.33-49.91-10.4-21.25-27.95-33.2-17.04-60.39,7.53-18.76,35.54-30.21,35.33-49.56-.21-19.47-7.2-35.42,4.63-53.46,13.19-20.11,33.06-16.46,51.5-25.4,15.02-7.29,16.86-38.54,32.51-51.3,21.95-17.91,38.84-5.04,61.64-3.46,21.82,1.52,34.59-27.57,57.66-30.55h11.83ZM293.48,196.43c-12.85,2.19-28.1,24.44-44.08,28.87-20.97,5.81-47.17-10.88-62.81-.7-11.32,7.37-14.97,36.07-27.9,48.03-14.25,13.18-44.86,12.29-53.68,25.2s1.86,39.48-3.47,56.68c-6.13,19.81-34.62,33.84-36.43,48.36-2.15,17.19,21.84,35.29,23.56,55.15s-13.42,38.65-10.77,55.15c2.43,15.08,34.45,23.77,45.12,37.7,15.36,20.05,3.02,60.47,33.2,63.43,21.48,2.11,38.5-3.16,55.21,14.79,13.76,14.78,19.93,39.39,45.1,30.34,17.08-6.14,25.27-16.05,45.63-14.6,16.32,1.17,35.07,18.46,49.17,16.72,17.06-2.1,26.3-31.34,42.29-40.53,15.5-8.92,31.69-4.52,48.05-7.16,25.04-4.04,17.69-38.77,26.4-56.43,10.18-20.67,45.02-27.01,49-42.7,4.9-19.3-16.7-39.89-8.46-65.66,6.61-20.69,35.06-37.71,13.9-60.15-12.65-13.41-28.4-21.45-30.49-42.48-1.37-13.77,6.03-36.56-1.27-48.04-8.67-13.64-39.57-12.56-54.07-25.79-13.73-12.52-16.55-43.68-31.02-49.83s-35.98,5.36-52.26,3.95c-24.6-2.12-39.14-33.86-59.92-30.32Z"/>
  <path class="cls-1" d="M127.44,352.31c5.7-5.16,15.78-1.86,16.5,6.1.5,5.56-5.37,17.12-7.2,23.41-36.84,126.48,79.84,243.74,206.52,208.55,15.58-4.33,29.19-11.69,43.67-18.52,9.08-.63,14.68,8.41,8.9,15.88s-36.88,18.6-46.66,21.37c-141.73,40.08-271.92-90.78-231.39-232.45,1.38-4.82,6.63-21.6,9.67-24.35Z"/>
  <path class="cls-1" d="M467.94,505.53c-7.43,6.73-18.35.16-16.22-10.8,1.47-7.56,7.05-18.22,9.14-27.34,30.11-131.21-97.53-243.33-223.57-195.04-6.12,2.34-25.06,13.37-28.84,13.64-9.08.63-14.68-8.41-8.9-15.88,4.09-5.29,25.55-14.15,32.56-16.74,144.68-53.31,287.87,79.68,245.49,227.82-1.38,4.82-6.63,21.6-9.67,24.35Z"/>
  <path class="cls-1" d="M330.93,347.28c9.37-2.13,14.88,6.75,11.03,14.98l-90.78,160.66c-7.64,11.82-23.19,3.33-17.47-9.59l90.76-160.68c1.52-2.08,3.87-4.79,6.46-5.38Z"/>
  <path class="cls-1" d="M230.41,322.68c62.13-8.41,64.77,81.72,8.45,82.2-52.29.45-54.84-75.92-8.45-82.2ZM232.35,342.37c-6.95,1.41-14.46,10.1-15.41,17.12-3.57,26.22,31.48,35.16,41.21,12.63,7.51-17.4-7.6-33.44-25.79-29.74Z"/>
  <path class="cls-1" d="M356.62,452.86c47.65-.82,57.1,68.35,12.99,81.04-61.61,17.72-74.67-79.97-12.99-81.04ZM356.62,472.59c-28.84.58-28.39,46.58,3.68,43.12,26.16-2.82,23.2-43.66-3.68-43.12Z"/>
  <path class="cls-1" d="M421.68,544.48c14.08-1.82,15.82,21.02-.26,19.59-11.14-1-10.68-18.17.26-19.59Z"/>
  <path class="cls-1" d="M164.91,310.28c-8.37-9.04,4.89-22.47,14.01-14.52,10.42,9.09-4.91,24.34-14.01,14.52Z"/>
</svg>