<?xml version="1.0" encoding="UTF-8"?>
<svg id="Capa_1" data-name="Capa 1" xmlns="http://www.w3.org/2000/svg" viewBox="0 0 595.28 841.89">
  <defs>
    <style>
      .cls-1 {
        fill: #3f3f3f;
      }
    </style>
  </defs>
  <path class="cls-1" d="M375.62,161.62c116.42,9.9,198.86,117.53,175.97,233.21-24.79,125.29-163.9,193.31-278.32,134.05-3.46-1.79-22.25-13.93-23.58-13.59l-155.7,156.42c-24.95,21.85-61.77-1.38-52.74-33.5,2.63-9.35,18.99-24.66,26.37-32.39,44.47-46.62,92.19-90.26,136.69-136.88-8.87-14.21-17.37-28.62-23.21-44.41-44.91-121.31,37.97-252.84,166.58-261.97l1.61-.94h26.34ZM453.27,264.3c-88.77-89.24-237.83-10.86-218.17,114.33,3.29,20.93,19.71,55.19,34.5,70.36,12.53,12.86,44.91,29.17,62.46,33.28,126.68,29.61,212.37-126.33,121.22-217.97Z"/>
</svg>