<?xml version="1.0" encoding="UTF-8"?>
<svg id="Capa_1" data-name="Capa 1" xmlns="http://www.w3.org/2000/svg" viewBox="0 0 595.28 841.89">
  <defs>
    <style>
      .cls-1 {
        fill: #3f3f3f;
      }
    </style>
  </defs>
  <path class="cls-1" d="M313.77,544.35l48.42-81.93,8.75-1.76c35.94,12.56,76.94,18.87,112.47,31.45,5.87,2.08,10.05,5.66,12.68,11.29,12.33,73.37,20.34,147.74,31.4,221.43-.7,11.47-7.31,21.29-19.37,22.37H121.39c-12.07-.23-19.96-10.89-20.36-22.37l29.02-212.81c1.32-9.34,5.92-16.64,15.06-19.9,36.43-7.66,73.15-22.94,109.28-30.59,6.32-1.34,9.84-2.3,14.27,3.56l45.12,79.27ZM122.43,728.17h383.66c.8,0,1.87-2.39,1.55-3.45l-29.98-213.88-32.96-8.41-15,42.47c23.78,27.82,15.34,72.17-9.49,96.4-3.05,2.98-10.03,6.68-12.22,9.25-1.49,1.75-2.27,5.37-3.88,7.62-12.98,18.15-43.8,8.05-33.43-16.44,2.89-6.82,12.21-13.1,19.54-13.51,5.26-.29,9.78,3.82,13.38,1.51,9.14-5.86,17.79-24.75,19.79-35.2,4.81-25.17-9.51-51.26-36.99-34.99-15.94,9.43-24.37,28.37-26.69,46.17,14.84,6.89,15.52,33.46-.26,39.76-15.75,6.28-26.81-9.73-24.45-24.45.81-5.07,4.72-8.48,5.51-11.47s-.11-6.46.37-9.62c5.23-34.76,32.08-70.1,70.87-63.99l13.92-39.51-51.47-14.7c-1.3.14-3.41,4.08-4.27,5.38-15.94,23.95-28.17,54.19-44.32,77.56-4.99,7.22-15.48,8.42-21.23,1.58l-48.52-83.36-59.83,15.65c.25,17.48-2.04,46.05,8.03,61.14,6.33,9.49,9.93,3.15,19.29,3.67,32.33,1.8,42.76,47.84,12.87,62.79-31.72,15.87-60.88-18.72-43.34-48.34-10.31-12.46-13.91-27.2-15.95-42.94l-1.02-30.45-25.02,6.44c-.99.72-1.54,5.54-1.81,7.18-10.13,61.91-18.16,127.41-25.98,189.81-.61,4.84-2.16,12.55-2.19,16.89,0,1.23.31,3.06,1.55,3.45ZM217.58,583.56c-14.1,2.57-13.61,24.82.86,26.65,21.61,2.72,20.76-30.59-.86-26.65Z"/>
  <path class="cls-1" d="M291.58,146.07c131.32-10.26,169.28,90.94,173.09,202.95.75,22.07.58,50.06-1,72.01-1.3,18.01-9.66,17.65-25.2,15.13-17.55-2.84-35.09-9.57-52.13-14.47-32.1,34.66-78.83,46.17-121.2,21.95-6.3-3.6-11.54-8.61-17.85-12.14l-69.01,19.92c-10.15.73-10.95-9.01-12.23-16.58-16.74-99.1-5.87-278.5,125.55-288.76ZM443.65,416.5c4.33-84.05,4.64-226.14-100.88-248.29-139.69-29.32-167.16,106.87-161.93,213.86l4.04,46.41,46.95-13c.18-1.13,0-1.94-.51-2.96-2.06-4.06-7.01-9.61-9.65-14.34-12.11-21.75-23.54-58.13-21.84-83.06.48-7.02,6.66-12.05,12.75-14.27,35.14,2.47,86.97-1,107.99-33.89,3.86-6.03,6.35-19.08,14.69-19.38,7.7-.27,13.68,11.48,19.45,16.57,9.91,8.74,25.21,15.23,38.52,15.49,8.02.16,22.49-6.91,27.33,1.59,1.65,2.91,2.91,14.02,3.15,17.83,1.51,24.41-1.02,49.91-9.02,72.99l-16,33.44,44.96,11ZM403.68,298.61h-19.48c-2.34,0-12.43-2.78-15.27-3.71-11.45-3.75-20.97-11.3-30.58-18.22-26.2,38.33-75.02,45.99-118.51,43.91,1.67,54.66,36.97,120.36,99.46,115.93,25.81-1.83,49.36-21.11,62.81-42.09,17.81-27.77,25.1-63.12,21.57-95.82Z"/>
</svg>