<?xml version="1.0" encoding="UTF-8"?>
<svg id="Capa_1" data-name="Capa 1" xmlns="http://www.w3.org/2000/svg" viewBox="0 0 595.28 841.89">
  <defs>
    <style>
      .cls-1 {
        fill: #3f3f3f;
      }
    </style>
  </defs>
  <path class="cls-1" d="M477.3,112.01c39.59,6.05,70.49,37.28,74.56,77.42l.07,484.8c-.75,10.91-10.68,18.62-21.56,15.79l-45.93-29.79c-2.41-.37-34.85,23.55-40.7,26.72-9.28,5.04-11.79,5.01-21.03,0-13.48-7.31-26.55-18.92-39.97-26.72-2.41-.37-34.85,23.55-40.7,26.72-9.28,5.04-11.79,5.01-21.03,0-13.48-7.31-26.55-18.92-39.97-26.72-2.41-.37-34.85,23.55-40.7,26.72-9.28,5.04-11.79,5.01-21.03,0-13.48-7.31-26.55-18.92-39.97-26.72-2.37-.36-34.33,23.13-40,26.29-7.85,4.36-13.68,6.48-21.78.49-1.92-1.42-6.38-7.43-6.38-9.44v-259.33h-54.8c-4.16,0-13.59-10.23-13.02-15.23l.04-244.08c1.66-22.93,21.02-44.15,44.05-46.91h389.84ZM111.19,384.33v-225.43c0-.77-4.45-7.96-5.69-9-6.52-5.41-16.9-5.32-23.15.49-.88.82-5.06,8.01-5.06,8.5v225.43h33.9ZM517.98,641.97V190.54c0-19.05-25.59-44.63-44.63-44.63H142.83l2.31,15.2-.04,480.86c10.73-5.37,24.21-20.68,36.61-19.12,9.21,1.16,44.95,30.78,48.49,30.24l46.79-30.07c4.97-.9,7.81-.17,12.19,1.97,6.3,3.07,40.18,28.48,42.71,28.1l42.69-28.52c5.68-2.99,10.76-2.28,16.29.42,6.3,3.07,40.18,28.48,42.71,28.1l42.69-28.52c15.54-7.15,28.77,11.19,41.69,17.4Z"/>
  <path class="cls-1" d="M348.64,218.07c8.11,2.14,22.15,11.18,23.5,20,2.21,14.44-11.26,25.29-24.46,18.82-3.68-1.8-6.55-6.31-11.59-7.62-16.76-4.34-28.87,16.2-16.61,28.46,6.4,6.4,16.36,4.39,24.71,6.36,48.05,11.34,51.27,81.18,4.47,97.03.44,14.07,2.2,39.06-18.83,37.16-18.45-1.67-15.3-24.15-15.4-37.19-14.61-3.28-33.86-22.64-18.51-36.32s24.22,6.38,36.13,5.71c13.98-.78,21.62-17.19,12.43-28.26-6.07-7.31-21.17-5.43-30.68-8.87-44.18-15.95-43.77-80.52.62-95.29-.39-14.96-2.46-39.87,19.82-37.05,17.93,2.27,13.9,24.22,14.39,37.05Z"/>
  <path class="cls-1" d="M260.03,486.29l208.82-.28c20.26,3.53,20.3,30.4,0,33.95h-206.84c-19.09-3.59-20.76-27.93-1.98-33.67Z"/>
  <path class="cls-1" d="M260.03,554.09l208.82-.28c20.26,3.53,20.3,30.4,0,33.95h-206.84c-19.09-3.59-20.76-27.93-1.98-33.67Z"/>
  <path class="cls-1" d="M192.23,486.29c22.42-4.6,28.6,29.03,7.41,33.38-22.13,4.54-28.79-28.99-7.41-33.38Z"/>
  <path class="cls-1" d="M192.23,554.09c22.42-4.6,28.6,29.03,7.41,33.38-22.13,4.54-28.79-28.99-7.41-33.38Z"/>
</svg>